<svg width="145" height="50" viewBox="0 0 145 50" fill="none" xmlns="http://www.w3.org/2000/svg">
<rect x="0.436047" y="0.436047" width="143.317" height="49.1279" rx="7.70349" fill="black"/>
<rect x="0.436047" y="0.436047" width="143.317" height="49.1279" rx="7.70349" stroke="white" stroke-width="0.872093"/>
<path d="M31.283 20.7926C31.1277 20.9116 28.385 22.438 28.385 25.832C28.385 29.7577 31.875 31.1465 31.9794 31.1809C31.9633 31.2655 31.425 33.0829 30.1393 34.9346C28.993 36.5642 27.7957 38.1911 25.9744 38.1911C24.1531 38.1911 23.6844 37.1461 21.5818 37.1461C19.5328 37.1461 18.8043 38.2254 17.1383 38.2254C15.4723 38.2254 14.3099 36.7176 12.9734 34.8658C11.4252 32.6914 10.1744 29.3133 10.1744 26.1071C10.1744 20.9645 13.5599 18.2372 16.8919 18.2372C18.6623 18.2372 20.1381 19.3853 21.2497 19.3853C22.3076 19.3853 23.9575 18.1684 25.9717 18.1684C26.7351 18.1684 29.4778 18.2372 31.283 20.7926ZM25.0155 15.9913C25.8485 15.0151 26.4378 13.6607 26.4378 12.3063C26.4378 12.1185 26.4217 11.928 26.3869 11.7746C25.0316 11.8249 23.4192 12.6661 22.4469 13.7798C21.6836 14.6369 20.9711 15.9913 20.9711 17.3642C20.9711 17.5706 21.0059 17.7769 21.022 17.843C21.1077 17.8589 21.247 17.8774 21.3863 17.8774C22.6023 17.8774 24.1316 17.0732 25.0155 15.9913Z" fill="white"/>
<path d="M40.3223 17.2675C40.252 17.2675 40.1923 17.2429 40.1431 17.1936C40.0939 17.1444 40.0693 17.0847 40.0693 17.0144V10.1503C40.0693 10.073 40.0939 10.0097 40.1431 9.9605C40.1923 9.9113 40.252 9.88669 40.3223 9.88669H42.8951C43.605 9.88669 44.1885 9.99565 44.6454 10.2136C45.1093 10.4315 45.4572 10.7548 45.6892 11.1836C45.9282 11.6124 46.0512 12.1361 46.0582 12.7546C46.0723 13.0639 46.0793 13.3381 46.0793 13.5771C46.0793 13.8161 46.0723 14.0867 46.0582 14.389C46.0442 15.0427 45.9247 15.5839 45.6998 16.0127C45.4748 16.4345 45.1339 16.7508 44.677 16.9617C44.2271 17.1655 43.6507 17.2675 42.9478 17.2675H40.3223ZM41.5349 16.0549H42.8951C43.2887 16.0549 43.6085 15.9987 43.8546 15.8862C44.1006 15.7737 44.2798 15.5945 44.3923 15.3485C44.5118 15.0954 44.5751 14.765 44.5821 14.3573C44.5891 14.1464 44.5926 13.9637 44.5926 13.809C44.5997 13.6474 44.5997 13.4892 44.5926 13.3346C44.5926 13.1729 44.5891 12.9901 44.5821 12.7863C44.568 12.2099 44.4239 11.7846 44.1498 11.5105C43.8756 11.2363 43.4398 11.0992 42.8423 11.0992H41.5349V16.0549ZM49.7816 17.3729C49.2192 17.3729 48.7448 17.2745 48.3581 17.0777C47.9786 16.8808 47.6868 16.6032 47.483 16.2447C47.2862 15.8862 47.1737 15.468 47.1456 14.99C47.1386 14.8634 47.135 14.7088 47.135 14.526C47.135 14.3433 47.1386 14.1886 47.1456 14.0621C47.1737 13.5771 47.2897 13.1588 47.4935 12.8074C47.7044 12.4489 47.9996 12.1712 48.3792 11.9744C48.7658 11.7776 49.2333 11.6792 49.7816 11.6792C50.3299 11.6792 50.7938 11.7776 51.1734 11.9744C51.56 12.1712 51.8552 12.4489 52.0591 12.8074C52.2699 13.1588 52.3894 13.5771 52.4176 14.0621C52.4246 14.1886 52.4281 14.3433 52.4281 14.526C52.4281 14.7088 52.4246 14.8634 52.4176 14.99C52.3894 15.468 52.2735 15.8862 52.0696 16.2447C51.8728 16.6032 51.5811 16.8808 51.1945 17.0777C50.8149 17.2745 50.3439 17.3729 49.7816 17.3729ZM49.7816 16.329C50.1541 16.329 50.4423 16.2131 50.6462 15.9811C50.85 15.7421 50.9625 15.3941 50.9836 14.9372C50.9906 14.8318 50.9941 14.6947 50.9941 14.526C50.9941 14.3573 50.9906 14.2203 50.9836 14.1148C50.9625 13.6649 50.85 13.3205 50.6462 13.0815C50.4423 12.8425 50.1541 12.723 49.7816 12.723C49.409 12.723 49.1208 12.8425 48.917 13.0815C48.7131 13.3205 48.6007 13.6649 48.5796 14.1148C48.5725 14.2203 48.569 14.3573 48.569 14.526C48.569 14.6947 48.5725 14.8318 48.5796 14.9372C48.6007 15.3941 48.7131 15.7421 48.917 15.9811C49.1208 16.2131 49.409 16.329 49.7816 16.329ZM54.9391 17.2675C54.8407 17.2675 54.7669 17.2429 54.7177 17.1936C54.6685 17.1444 54.6263 17.0812 54.5912 17.0039L53.0834 12.1115C53.0764 12.0763 53.0729 12.0447 53.0729 12.0166C53.0729 11.9533 53.0939 11.9006 53.1361 11.8584C53.1853 11.8092 53.238 11.7846 53.2943 11.7846H54.0745C54.1589 11.7846 54.2257 11.8092 54.2749 11.8584C54.3241 11.9006 54.3522 11.9428 54.3592 11.9849L55.3925 15.475L56.4891 12.0166C56.5032 11.9674 56.5348 11.9182 56.584 11.869C56.6332 11.8127 56.707 11.7846 56.8054 11.7846H57.3326C57.431 11.7846 57.5048 11.8127 57.554 11.869C57.6032 11.9182 57.6349 11.9674 57.6489 12.0166L58.7455 15.475L59.7788 11.9849C59.7858 11.9428 59.8104 11.9006 59.8526 11.8584C59.9018 11.8092 59.9686 11.7846 60.0529 11.7846H60.8332C60.8965 11.7846 60.9492 11.8092 60.9914 11.8584C61.0406 11.9006 61.0652 11.9533 61.0652 12.0166C61.0652 12.0447 61.0581 12.0763 61.0441 12.1115L59.5363 17.0039C59.5152 17.0812 59.4765 17.1444 59.4203 17.1936C59.3711 17.2429 59.2973 17.2675 59.1989 17.2675H58.5135C58.4151 17.2675 58.3378 17.2429 58.2816 17.1936C58.2253 17.1444 58.1867 17.0812 58.1656 17.0039L57.069 13.672L55.9724 17.0039C55.9443 17.0812 55.9021 17.1444 55.8459 17.1936C55.7967 17.2429 55.7194 17.2675 55.6139 17.2675H54.9391ZM62.3443 17.2675C62.274 17.2675 62.2142 17.2429 62.165 17.1936C62.1158 17.1444 62.0912 17.0847 62.0912 17.0144V12.0377C62.0912 11.9674 62.1158 11.9076 62.165 11.8584C62.2142 11.8092 62.274 11.7846 62.3443 11.7846H63.2089C63.2792 11.7846 63.3389 11.8092 63.3881 11.8584C63.4373 11.9076 63.4619 11.9674 63.4619 12.0377V12.47C63.6447 12.245 63.8767 12.0587 64.1578 11.9111C64.446 11.7565 64.801 11.6792 65.2228 11.6792C65.6516 11.6792 66.0241 11.7776 66.3404 11.9744C66.6568 12.1642 66.8993 12.4348 67.068 12.7863C67.2437 13.1377 67.3316 13.5595 67.3316 14.0516V17.0144C67.3316 17.0847 67.307 17.1444 67.2578 17.1936C67.2086 17.2429 67.1488 17.2675 67.0785 17.2675H66.1506C66.0803 17.2675 66.0206 17.2429 65.9714 17.1936C65.9222 17.1444 65.8976 17.0847 65.8976 17.0144V14.1148C65.8976 13.7071 65.7957 13.3873 65.5918 13.1553C65.395 12.9234 65.1068 12.8074 64.7272 12.8074C64.3617 12.8074 64.07 12.9234 63.8521 13.1553C63.6342 13.3873 63.5252 13.7071 63.5252 14.1148V17.0144C63.5252 17.0847 63.5006 17.1444 63.4514 17.1936C63.4022 17.2429 63.3424 17.2675 63.2721 17.2675H62.3443ZM68.9345 17.2675C68.8642 17.2675 68.8044 17.2429 68.7552 17.1936C68.706 17.1444 68.6814 17.0847 68.6814 17.0144V10.0343C68.6814 9.96402 68.706 9.90427 68.7552 9.85506C68.8044 9.80586 68.8642 9.78125 68.9345 9.78125H69.8096C69.8799 9.78125 69.9397 9.80586 69.9889 9.85506C70.0381 9.90427 70.0627 9.96402 70.0627 10.0343V17.0144C70.0627 17.0847 70.0381 17.1444 69.9889 17.1936C69.9397 17.2429 69.8799 17.2675 69.8096 17.2675H68.9345ZM73.8864 17.3729C73.3241 17.3729 72.8496 17.2745 72.463 17.0777C72.0834 16.8808 71.7917 16.6032 71.5879 16.2447C71.391 15.8862 71.2786 15.468 71.2505 14.99C71.2434 14.8634 71.2399 14.7088 71.2399 14.526C71.2399 14.3433 71.2434 14.1886 71.2505 14.0621C71.2786 13.5771 71.3946 13.1588 71.5984 12.8074C71.8093 12.4489 72.1045 12.1712 72.4841 11.9744C72.8707 11.7776 73.3382 11.6792 73.8864 11.6792C74.4347 11.6792 74.8987 11.7776 75.2782 11.9744C75.6649 12.1712 75.9601 12.4489 76.1639 12.8074C76.3748 13.1588 76.4943 13.5771 76.5224 14.0621C76.5295 14.1886 76.533 14.3433 76.533 14.526C76.533 14.7088 76.5295 14.8634 76.5224 14.99C76.4943 15.468 76.3783 15.8862 76.1745 16.2447C75.9777 16.6032 75.6859 16.8808 75.2993 17.0777C74.9197 17.2745 74.4488 17.3729 73.8864 17.3729ZM73.8864 16.329C74.259 16.329 74.5472 16.2131 74.751 15.9811C74.9549 15.7421 75.0674 15.3941 75.0884 14.9372C75.0955 14.8318 75.099 14.6947 75.099 14.526C75.099 14.3573 75.0955 14.2203 75.0884 14.1148C75.0674 13.6649 74.9549 13.3205 74.751 13.0815C74.5472 12.8425 74.259 12.723 73.8864 12.723C73.5139 12.723 73.2257 12.8425 73.0218 13.0815C72.818 13.3205 72.7055 13.6649 72.6844 14.1148C72.6774 14.2203 72.6739 14.3573 72.6739 14.526C72.6739 14.6947 72.6774 14.8318 72.6844 14.9372C72.7055 15.3941 72.818 15.7421 73.0218 15.9811C73.2257 16.2131 73.5139 16.329 73.8864 16.329ZM79.2933 17.3729C78.9278 17.3729 78.5974 17.3026 78.3022 17.162C78.007 17.0144 77.7715 16.8211 77.5958 16.5821C77.4271 16.3361 77.3427 16.0619 77.3427 15.7597C77.3427 15.2676 77.5395 14.8775 77.9332 14.5893C78.3338 14.2941 78.861 14.0972 79.5148 13.9988L80.9593 13.788V13.5665C80.9593 13.2713 80.8855 13.0428 80.7379 12.8812C80.5902 12.7195 80.3372 12.6387 79.9787 12.6387C79.7256 12.6387 79.5183 12.6914 79.3566 12.7968C79.202 12.8952 79.086 13.0288 79.0087 13.1975C78.9524 13.2889 78.8716 13.3346 78.7661 13.3346H77.9332C77.8559 13.3346 77.7961 13.3135 77.7539 13.2713C77.7188 13.2291 77.7012 13.1729 77.7012 13.1026C77.7082 12.9901 77.7539 12.8531 77.8383 12.6914C77.9226 12.5297 78.0562 12.3751 78.2389 12.2274C78.4217 12.0728 78.6572 11.9428 78.9454 11.8373C79.2336 11.7319 79.5815 11.6792 79.9892 11.6792C80.4321 11.6792 80.8046 11.7354 81.1069 11.8479C81.4162 11.9533 81.6622 12.0974 81.845 12.2802C82.0277 12.4629 82.1613 12.6773 82.2456 12.9233C82.33 13.1694 82.3722 13.4295 82.3722 13.7036V17.0144C82.3722 17.0847 82.3476 17.1444 82.2984 17.1936C82.2492 17.2429 82.1894 17.2675 82.1191 17.2675H81.2651C81.1877 17.2675 81.1245 17.2429 81.0753 17.1936C81.0331 17.1444 81.012 17.0847 81.012 17.0144V16.6032C80.9206 16.7367 80.7976 16.8633 80.643 16.9828C80.4883 17.0952 80.2985 17.1901 80.0736 17.2675C79.8557 17.3377 79.5956 17.3729 79.2933 17.3729ZM79.6518 16.3712C79.8979 16.3712 80.1193 16.3185 80.3161 16.2131C80.52 16.1076 80.6781 15.9459 80.7906 15.728C80.9101 15.5031 80.9698 15.2219 80.9698 14.8845V14.6631L79.9154 14.8318C79.5007 14.8951 79.1914 14.997 78.9876 15.1376C78.7837 15.2782 78.6818 15.4504 78.6818 15.6542C78.6818 15.8089 78.7275 15.9424 78.8189 16.0549C78.9173 16.1603 79.0403 16.2412 79.1879 16.2974C79.3355 16.3466 79.4902 16.3712 79.6518 16.3712ZM85.7598 17.3729C85.3943 17.3729 85.071 17.3131 84.7898 17.1936C84.5156 17.0671 84.2872 16.8914 84.1044 16.6665C83.9217 16.4415 83.7811 16.1779 83.6827 15.8757C83.5843 15.5664 83.528 15.229 83.514 14.8634C83.5069 14.7369 83.5034 14.6244 83.5034 14.526C83.5034 14.4206 83.5069 14.3046 83.514 14.1781C83.528 13.8266 83.5807 13.4998 83.6721 13.1975C83.7705 12.8952 83.9111 12.6316 84.0939 12.4067C84.2837 12.1747 84.5156 11.9955 84.7898 11.869C85.071 11.7424 85.3943 11.6792 85.7598 11.6792C86.1394 11.6792 86.4592 11.7459 86.7193 11.8795C86.9864 12.006 87.2079 12.1712 87.3836 12.3751V10.0343C87.3836 9.96402 87.4047 9.90427 87.4469 9.85506C87.4961 9.80586 87.5593 9.78125 87.6367 9.78125H88.5329C88.6032 9.78125 88.6629 9.80586 88.7121 9.85506C88.7613 9.90427 88.7859 9.96402 88.7859 10.0343V17.0144C88.7859 17.0847 88.7613 17.1444 88.7121 17.1936C88.6629 17.2429 88.6032 17.2675 88.5329 17.2675H87.6999C87.6226 17.2675 87.5593 17.2429 87.5101 17.1936C87.4679 17.1444 87.4469 17.0847 87.4469 17.0144V16.6243C87.2711 16.8422 87.0462 17.0214 86.772 17.162C86.5049 17.3026 86.1675 17.3729 85.7598 17.3729ZM86.15 16.2447C86.4452 16.2447 86.6807 16.1779 86.8564 16.0444C87.0321 15.9108 87.1622 15.7421 87.2465 15.5382C87.3309 15.3274 87.3766 15.113 87.3836 14.8951C87.3906 14.7685 87.3941 14.635 87.3941 14.4944C87.3941 14.3468 87.3906 14.2097 87.3836 14.0832C87.3766 13.8723 87.3274 13.672 87.236 13.4822C87.1446 13.2854 87.011 13.1237 86.8353 12.9972C86.6596 12.8706 86.4311 12.8074 86.15 12.8074C85.8547 12.8074 85.6192 12.8741 85.4435 13.0077C85.2748 13.1342 85.1518 13.3029 85.0745 13.5138C84.9971 13.7247 84.9515 13.9567 84.9374 14.2097C84.9304 14.4206 84.9304 14.6315 84.9374 14.8423C84.9515 15.0954 84.9971 15.3274 85.0745 15.5382C85.1518 15.7491 85.2748 15.9213 85.4435 16.0549C85.6192 16.1814 85.8547 16.2447 86.15 16.2447ZM95.0258 17.3729C94.4635 17.3729 93.989 17.2745 93.6024 17.0777C93.2228 16.8808 92.9311 16.6032 92.7272 16.2447C92.5304 15.8862 92.4179 15.468 92.3898 14.99C92.3828 14.8634 92.3793 14.7088 92.3793 14.526C92.3793 14.3433 92.3828 14.1886 92.3898 14.0621C92.4179 13.5771 92.5339 13.1588 92.7378 12.8074C92.9487 12.4489 93.2439 12.1712 93.6235 11.9744C94.0101 11.7776 94.4775 11.6792 95.0258 11.6792C95.5741 11.6792 96.038 11.7776 96.4176 11.9744C96.8042 12.1712 97.0995 12.4489 97.3033 12.8074C97.5142 13.1588 97.6337 13.5771 97.6618 14.0621C97.6688 14.1886 97.6723 14.3433 97.6723 14.526C97.6723 14.7088 97.6688 14.8634 97.6618 14.99C97.6337 15.468 97.5177 15.8862 97.3139 16.2447C97.117 16.6032 96.8253 16.8808 96.4387 17.0777C96.0591 17.2745 95.5882 17.3729 95.0258 17.3729ZM95.0258 16.329C95.3984 16.329 95.6866 16.2131 95.8904 15.9811C96.0943 15.7421 96.2067 15.3941 96.2278 14.9372C96.2349 14.8318 96.2384 14.6947 96.2384 14.526C96.2384 14.3573 96.2349 14.2203 96.2278 14.1148C96.2067 13.6649 96.0943 13.3205 95.8904 13.0815C95.6866 12.8425 95.3984 12.723 95.0258 12.723C94.6533 12.723 94.3651 12.8425 94.1612 13.0815C93.9574 13.3205 93.8449 13.6649 93.8238 14.1148C93.8168 14.2203 93.8133 14.3573 93.8133 14.526C93.8133 14.6947 93.8168 14.8318 93.8238 14.9372C93.8449 15.3941 93.9574 15.7421 94.1612 15.9811C94.3651 16.2131 94.6533 16.329 95.0258 16.329ZM99.0936 17.2675C99.0233 17.2675 98.9636 17.2429 98.9144 17.1936C98.8652 17.1444 98.8406 17.0847 98.8406 17.0144V12.0377C98.8406 11.9674 98.8652 11.9076 98.9144 11.8584C98.9636 11.8092 99.0233 11.7846 99.0936 11.7846H99.9582C100.029 11.7846 100.088 11.8092 100.137 11.8584C100.187 11.9076 100.211 11.9674 100.211 12.0377V12.47C100.394 12.245 100.626 12.0587 100.907 11.9111C101.195 11.7565 101.55 11.6792 101.972 11.6792C102.401 11.6792 102.773 11.7776 103.09 11.9744C103.406 12.1642 103.649 12.4348 103.817 12.7863C103.993 13.1377 104.081 13.5595 104.081 14.0516V17.0144C104.081 17.0847 104.056 17.1444 104.007 17.1936C103.958 17.2429 103.898 17.2675 103.828 17.2675H102.9C102.83 17.2675 102.77 17.2429 102.721 17.1936C102.672 17.1444 102.647 17.0847 102.647 17.0144V14.1148C102.647 13.7071 102.545 13.3873 102.341 13.1553C102.144 12.9234 101.856 12.8074 101.477 12.8074C101.111 12.8074 100.819 12.9234 100.601 13.1553C100.384 13.3873 100.275 13.7071 100.275 14.1148V17.0144C100.275 17.0847 100.25 17.1444 100.201 17.1936C100.152 17.2429 100.092 17.2675 100.022 17.2675H99.0936ZM110.091 17.2675C109.67 17.2675 109.315 17.1936 109.026 17.046C108.738 16.8984 108.524 16.6805 108.383 16.3923C108.243 16.0971 108.172 15.7316 108.172 15.2957V12.9023H107.339C107.269 12.9023 107.209 12.8777 107.16 12.8285C107.111 12.7792 107.086 12.7195 107.086 12.6492V12.0377C107.086 11.9674 107.111 11.9076 107.16 11.8584C107.209 11.8092 107.269 11.7846 107.339 11.7846H108.172V10.0343C108.172 9.96402 108.193 9.90427 108.236 9.85506C108.285 9.80586 108.348 9.78125 108.425 9.78125H109.279C109.35 9.78125 109.409 9.80586 109.459 9.85506C109.508 9.90427 109.532 9.96402 109.532 10.0343V11.7846H110.85C110.921 11.7846 110.981 11.8092 111.03 11.8584C111.079 11.9076 111.104 11.9674 111.104 12.0377V12.6492C111.104 12.7195 111.079 12.7792 111.03 12.8285C110.981 12.8777 110.921 12.9023 110.85 12.9023H109.532V15.1903C109.532 15.4785 109.582 15.7034 109.68 15.8651C109.786 16.0268 109.965 16.1076 110.218 16.1076H110.945C111.016 16.1076 111.075 16.1322 111.125 16.1814C111.174 16.2306 111.198 16.2904 111.198 16.3607V17.0144C111.198 17.0847 111.174 17.1444 111.125 17.1936C111.075 17.2429 111.016 17.2675 110.945 17.2675H110.091ZM112.397 17.2675C112.327 17.2675 112.267 17.2429 112.218 17.1936C112.169 17.1444 112.144 17.0847 112.144 17.0144V10.0343C112.144 9.96402 112.169 9.90427 112.218 9.85506C112.267 9.80586 112.327 9.78125 112.397 9.78125H113.336C113.413 9.78125 113.473 9.80586 113.515 9.85506C113.564 9.90427 113.589 9.96402 113.589 10.0343V12.4383C113.779 12.2134 114.011 12.0306 114.285 11.89C114.559 11.7495 114.896 11.6792 115.297 11.6792C115.726 11.6792 116.098 11.7776 116.415 11.9744C116.738 12.1642 116.988 12.4348 117.163 12.7863C117.339 13.1377 117.427 13.5595 117.427 14.0516V17.0144C117.427 17.0847 117.402 17.1444 117.353 17.1936C117.304 17.2429 117.244 17.2675 117.174 17.2675H116.225C116.155 17.2675 116.095 17.2429 116.046 17.1936C115.996 17.1444 115.972 17.0847 115.972 17.0144V14.1148C115.972 13.7071 115.87 13.3873 115.666 13.1553C115.469 12.9234 115.181 12.8074 114.801 12.8074C114.436 12.8074 114.141 12.9234 113.916 13.1553C113.698 13.3873 113.589 13.7071 113.589 14.1148V17.0144C113.589 17.0847 113.564 17.1444 113.515 17.1936C113.473 17.2429 113.413 17.2675 113.336 17.2675H112.397ZM121.127 17.3729C120.347 17.3729 119.728 17.148 119.271 16.6981C118.814 16.2482 118.568 15.6085 118.533 14.7791C118.526 14.7088 118.522 14.6209 118.522 14.5155C118.522 14.403 118.526 14.3152 118.533 14.2519C118.561 13.7247 118.681 13.2678 118.891 12.8812C119.109 12.4946 119.408 12.1993 119.788 11.9955C120.167 11.7846 120.614 11.6792 121.127 11.6792C121.696 11.6792 122.174 11.7987 122.561 12.0377C122.947 12.2696 123.239 12.5965 123.436 13.0182C123.633 13.433 123.731 13.9145 123.731 14.4628V14.6842C123.731 14.7545 123.707 14.8142 123.657 14.8634C123.608 14.9126 123.545 14.9372 123.468 14.9372H119.967C119.967 14.9372 119.967 14.9478 119.967 14.9689C119.967 14.99 119.967 15.0075 119.967 15.0216C119.974 15.2676 120.02 15.4961 120.104 15.707C120.195 15.9108 120.325 16.076 120.494 16.2025C120.67 16.329 120.877 16.3923 121.116 16.3923C121.313 16.3923 121.478 16.3642 121.612 16.308C121.745 16.2447 121.854 16.1744 121.939 16.0971C122.023 16.0198 122.083 15.9565 122.118 15.9073C122.181 15.8229 122.23 15.7737 122.266 15.7597C122.308 15.7386 122.367 15.728 122.445 15.728H123.352C123.422 15.728 123.478 15.7491 123.52 15.7913C123.569 15.8335 123.591 15.8862 123.584 15.9495C123.576 16.0619 123.517 16.199 123.404 16.3607C123.299 16.5224 123.144 16.6805 122.94 16.8352C122.736 16.9898 122.48 17.1198 122.171 17.2253C121.868 17.3237 121.52 17.3729 121.127 17.3729ZM119.967 14.0516H122.297V14.0199C122.297 13.7458 122.251 13.5068 122.16 13.3029C122.069 13.0991 121.935 12.9374 121.759 12.8179C121.584 12.6984 121.373 12.6387 121.127 12.6387C120.881 12.6387 120.67 12.6984 120.494 12.8179C120.318 12.9374 120.185 13.0991 120.093 13.3029C120.009 13.5068 119.967 13.7458 119.967 14.0199V14.0516Z" fill="white"/>
<path d="M40.029 37.2791C39.9098 37.2791 39.7981 37.2344 39.6938 37.145C39.6044 37.0556 39.5597 36.9439 39.5597 36.8098C39.5597 36.7502 39.5746 36.6832 39.6044 36.6087L44.9901 22.1948C45.0348 22.0458 45.1167 21.9192 45.2359 21.8149C45.37 21.6957 45.5488 21.6361 45.7722 21.6361H48.2081C48.4315 21.6361 48.6029 21.6957 48.722 21.8149C48.8412 21.9192 48.9306 22.0458 48.9902 22.1948L54.3759 36.6087C54.3908 36.6832 54.3982 36.7502 54.3982 36.8098C54.3982 36.9439 54.3535 37.0556 54.2641 37.145C54.1748 37.2344 54.0705 37.2791 53.9513 37.2791H52.0071C51.7985 37.2791 51.6421 37.2344 51.5378 37.145C51.4484 37.0407 51.3888 36.9439 51.359 36.8545L50.3087 34.1282H43.6716L42.6213 36.8545C42.5915 36.9439 42.5244 37.0407 42.4202 37.145C42.3308 37.2344 42.1818 37.2791 41.9732 37.2791H40.029ZM44.4537 31.5582H49.5265L46.979 24.653L44.4537 31.5582ZM55.2108 41.5251C55.0618 41.5251 54.9351 41.4729 54.8308 41.3686C54.7266 41.2644 54.6744 41.1377 54.6744 40.9887V26.1949C54.6744 26.0459 54.7266 25.9193 54.8308 25.815C54.9351 25.7107 55.0618 25.6586 55.2108 25.6586H56.9762C57.1401 25.6586 57.2667 25.7107 57.3561 25.815C57.4604 25.9193 57.5125 26.0459 57.5125 26.1949V27.0888C57.8701 26.6121 58.3394 26.2173 58.9204 25.9044C59.5014 25.5916 60.224 25.4351 61.0881 25.4351C61.8776 25.4351 62.563 25.5618 63.144 25.815C63.725 26.0683 64.2092 26.4333 64.5966 26.91C64.9839 27.3719 65.2819 27.9231 65.4904 28.5637C65.699 29.2043 65.8182 29.912 65.848 30.6867C65.8629 30.94 65.8703 31.2007 65.8703 31.4689C65.8703 31.737 65.8629 32.0052 65.848 32.2734C65.8331 33.0183 65.7214 33.711 65.5128 34.3516C65.3042 34.9774 64.9988 35.5286 64.5966 36.0053C64.2092 36.4672 63.725 36.8322 63.144 37.1003C62.563 37.3685 61.8776 37.5026 61.0881 37.5026C60.2836 37.5026 59.5982 37.3611 59.0321 37.078C58.466 36.78 58.0041 36.3927 57.6466 35.9159V40.9887C57.6466 41.1377 57.5944 41.2644 57.4902 41.3686C57.4008 41.4729 57.2741 41.5251 57.1103 41.5251H55.2108ZM60.2612 35.1114C60.9018 35.1114 61.4009 34.9774 61.7585 34.7092C62.116 34.4261 62.3693 34.0611 62.5183 33.6142C62.6821 33.1672 62.779 32.6756 62.8088 32.1393C62.8386 31.6923 62.8386 31.2454 62.8088 30.7984C62.779 30.2621 62.6821 29.7705 62.5183 29.3235C62.3693 28.8766 62.116 28.519 61.7585 28.2509C61.4009 27.9678 60.9018 27.8263 60.2612 27.8263C59.6504 27.8263 59.1513 27.9678 58.7639 28.2509C58.3915 28.5339 58.1159 28.8989 57.9371 29.3459C57.7732 29.7779 57.6764 30.2249 57.6466 30.6867C57.6317 30.9549 57.6242 31.2379 57.6242 31.5359C57.6242 31.8339 57.6317 32.1244 57.6466 32.4074C57.6615 32.8544 57.7658 33.2864 57.9595 33.7036C58.1531 34.1058 58.4362 34.441 58.8086 34.7092C59.1811 34.9774 59.6653 35.1114 60.2612 35.1114ZM67.3734 41.5251C67.2244 41.5251 67.0977 41.4729 66.9935 41.3686C66.8892 41.2644 66.837 41.1377 66.837 40.9887V26.1949C66.837 26.0459 66.8892 25.9193 66.9935 25.815C67.0977 25.7107 67.2244 25.6586 67.3734 25.6586H69.1388C69.3027 25.6586 69.4293 25.7107 69.5187 25.815C69.623 25.9193 69.6751 26.0459 69.6751 26.1949V27.0888C70.0327 26.6121 70.502 26.2173 71.083 25.9044C71.664 25.5916 72.3866 25.4351 73.2507 25.4351C74.0403 25.4351 74.7256 25.5618 75.3066 25.815C75.8876 26.0683 76.3718 26.4333 76.7592 26.91C77.1465 27.3719 77.4445 27.9231 77.653 28.5637C77.8616 29.2043 77.9808 29.912 78.0106 30.6867C78.0255 30.94 78.0329 31.2007 78.0329 31.4689C78.0329 31.737 78.0255 32.0052 78.0106 32.2734C77.9957 33.0183 77.884 33.711 77.6754 34.3516C77.4668 34.9774 77.1614 35.5286 76.7592 36.0053C76.3718 36.4672 75.8876 36.8322 75.3066 37.1003C74.7256 37.3685 74.0403 37.5026 73.2507 37.5026C72.4462 37.5026 71.7608 37.3611 71.1947 37.078C70.6286 36.78 70.1668 36.3927 69.8092 35.9159V40.9887C69.8092 41.1377 69.7571 41.2644 69.6528 41.3686C69.5634 41.4729 69.4367 41.5251 69.2729 41.5251H67.3734ZM72.4238 35.1114C73.0644 35.1114 73.5635 34.9774 73.9211 34.7092C74.2786 34.4261 74.5319 34.0611 74.6809 33.6142C74.8448 33.1672 74.9416 32.6756 74.9714 32.1393C75.0012 31.6923 75.0012 31.2454 74.9714 30.7984C74.9416 30.2621 74.8448 29.7705 74.6809 29.3235C74.5319 28.8766 74.2786 28.519 73.9211 28.2509C73.5635 27.9678 73.0644 27.8263 72.4238 27.8263C71.813 27.8263 71.3139 27.9678 70.9266 28.2509C70.5541 28.5339 70.2785 28.8989 70.0997 29.3459C69.9358 29.7779 69.839 30.2249 69.8092 30.6867C69.7943 30.9549 69.7869 31.2379 69.7869 31.5359C69.7869 31.8339 69.7943 32.1244 69.8092 32.4074C69.8241 32.8544 69.9284 33.2864 70.1221 33.7036C70.3157 34.1058 70.5988 34.441 70.9713 34.7092C71.3437 34.9774 71.8279 35.1114 72.4238 35.1114ZM88.2182 37.5026C86.8327 37.5026 85.6706 37.3015 84.732 36.8992C83.8083 36.4821 83.1007 35.9457 82.6091 35.2902C82.1323 34.6198 81.879 33.9196 81.8492 33.1896C81.8492 33.0555 81.8939 32.9438 81.9833 32.8544C82.0727 32.765 82.1845 32.7203 82.3185 32.7203H84.3074C84.5011 32.7203 84.6426 32.765 84.732 32.8544C84.8363 32.9289 84.9257 33.0257 85.0002 33.1449C85.0896 33.428 85.2609 33.711 85.5142 33.9941C85.7674 34.2622 86.1101 34.4857 86.5421 34.6645C86.9891 34.8433 87.5478 34.9327 88.2182 34.9327C89.2908 34.9327 90.0879 34.7539 90.6093 34.3963C91.1457 34.0388 91.4138 33.5546 91.4138 32.9438C91.4138 32.5117 91.2723 32.1691 90.9892 31.9158C90.7062 31.6476 90.2667 31.4093 89.6707 31.2007C89.0897 30.9772 88.315 30.7463 87.3466 30.5079C86.2293 30.2398 85.2907 29.9195 84.5309 29.547C83.786 29.1597 83.2199 28.6755 82.8325 28.0944C82.4601 27.5134 82.2738 26.776 82.2738 25.8821C82.2738 25.018 82.5048 24.2507 82.9666 23.5803C83.4433 22.9099 84.1138 22.381 84.9778 21.9937C85.8568 21.6063 86.8997 21.4126 88.1064 21.4126C89.0748 21.4126 89.9315 21.5467 90.6764 21.8149C91.4213 22.0682 92.0395 22.4108 92.5312 22.8429C93.0228 23.26 93.3953 23.7144 93.6485 24.206C93.9167 24.6828 94.0582 25.1521 94.0731 25.6139C94.0731 25.7331 94.0284 25.8448 93.9391 25.9491C93.8646 26.0385 93.7528 26.0832 93.6038 26.0832H91.5256C91.4064 26.0832 91.2872 26.0534 91.168 25.9938C91.0488 25.9342 90.952 25.8225 90.8775 25.6586C90.7881 25.1968 90.4976 24.802 90.006 24.4742C89.5143 24.1464 88.8812 23.9826 88.1064 23.9826C87.302 23.9826 86.6539 24.1315 86.1622 24.4295C85.6706 24.7275 85.4248 25.1893 85.4248 25.815C85.4248 26.2322 85.544 26.5823 85.7823 26.8653C86.0356 27.1335 86.4304 27.3719 86.9667 27.5805C87.518 27.789 88.2405 28.0125 89.1344 28.2509C90.4008 28.5339 91.4362 28.8617 92.2407 29.2341C93.0452 29.6066 93.6336 30.0833 94.0061 30.6644C94.3785 31.2305 94.5648 31.953 94.5648 32.832C94.5648 33.8153 94.2966 34.657 93.7603 35.3573C93.2388 36.0426 92.5014 36.5715 91.5479 36.9439C90.5944 37.3164 89.4845 37.5026 88.2182 37.5026ZM100.545 37.2791C99.651 37.2791 98.8987 37.1227 98.2878 36.8098C97.677 36.497 97.2226 36.0351 96.9247 35.4243C96.6267 34.7986 96.4777 34.0239 96.4777 33.1002V28.0274H94.7123C94.5633 28.0274 94.4367 27.9753 94.3324 27.871C94.2281 27.7667 94.176 27.64 94.176 27.4911V26.1949C94.176 26.0459 94.2281 25.9193 94.3324 25.815C94.4367 25.7107 94.5633 25.6586 94.7123 25.6586H96.4777V21.949C96.4777 21.8 96.5224 21.6734 96.6118 21.5691C96.7161 21.4648 96.8502 21.4126 97.0141 21.4126H98.8242C98.9732 21.4126 99.0998 21.4648 99.2041 21.5691C99.3084 21.6734 99.3605 21.8 99.3605 21.949V25.6586H102.154C102.303 25.6586 102.43 25.7107 102.534 25.815C102.638 25.9193 102.69 26.0459 102.69 26.1949V27.4911C102.69 27.64 102.638 27.7667 102.534 27.871C102.43 27.9753 102.303 28.0274 102.154 28.0274H99.3605V32.8767C99.3605 33.4875 99.4648 33.9643 99.6734 34.3069C99.8968 34.6496 100.277 34.8209 100.813 34.8209H102.355C102.504 34.8209 102.631 34.8731 102.735 34.9774C102.839 35.0816 102.891 35.2083 102.891 35.3573V36.7428C102.891 36.8918 102.839 37.0184 102.735 37.1227C102.631 37.227 102.504 37.2791 102.355 37.2791H100.545ZM108.449 37.5026C107.257 37.5026 106.252 37.294 105.432 36.8769C104.628 36.4597 104.01 35.8712 103.578 35.1114C103.161 34.3516 102.922 33.4652 102.863 32.4521C102.848 32.184 102.84 31.8562 102.84 31.4689C102.84 31.0815 102.848 30.7537 102.863 30.4856C102.922 29.4576 103.168 28.5712 103.6 27.8263C104.047 27.0665 104.673 26.478 105.477 26.0608C106.297 25.6437 107.287 25.4351 108.449 25.4351C109.611 25.4351 110.595 25.6437 111.399 26.0608C112.219 26.478 112.844 27.0665 113.276 27.8263C113.723 28.5712 113.977 29.4576 114.036 30.4856C114.051 30.7537 114.058 31.0815 114.058 31.4689C114.058 31.8562 114.051 32.184 114.036 32.4521C113.977 33.4652 113.731 34.3516 113.299 35.1114C112.882 35.8712 112.263 36.4597 111.444 36.8769C110.639 37.294 109.641 37.5026 108.449 37.5026ZM108.449 35.2902C109.239 35.2902 109.85 35.0444 110.282 34.5528C110.714 34.0462 110.952 33.3088 110.997 32.3404C111.012 32.1169 111.019 31.8264 111.019 31.4689C111.019 31.1113 111.012 30.8208 110.997 30.5973C110.952 29.6438 110.714 28.9138 110.282 28.4073C109.85 27.9008 109.239 27.6475 108.449 27.6475C107.66 27.6475 107.049 27.9008 106.617 28.4073C106.185 28.9138 105.946 29.6438 105.902 30.5973C105.887 30.8208 105.879 31.1113 105.879 31.4689C105.879 31.8264 105.887 32.1169 105.902 32.3404C105.946 33.3088 106.185 34.0462 106.617 34.5528C107.049 35.0444 107.66 35.2902 108.449 35.2902ZM115.506 37.2791C115.358 37.2791 115.231 37.227 115.127 37.1227C115.022 37.0184 114.97 36.8918 114.97 36.7428V26.2173C114.97 26.0534 115.022 25.9193 115.127 25.815C115.231 25.7107 115.358 25.6586 115.506 25.6586H117.317C117.466 25.6586 117.592 25.7107 117.697 25.815C117.816 25.9193 117.875 26.0534 117.875 26.2173V27.1335C118.218 26.6568 118.657 26.2918 119.194 26.0385C119.745 25.7852 120.378 25.6586 121.093 25.6586H122.01C122.173 25.6586 122.3 25.7107 122.389 25.815C122.494 25.9193 122.546 26.0459 122.546 26.1949V27.8039C122.546 27.9529 122.494 28.0795 122.389 28.1838C122.3 28.2881 122.173 28.3403 122.01 28.3403H120.266C119.551 28.3403 118.993 28.5414 118.59 28.9436C118.203 29.3459 118.009 29.8971 118.009 30.5973V36.7428C118.009 36.8918 117.957 37.0184 117.853 37.1227C117.749 37.227 117.615 37.2791 117.451 37.2791H115.506ZM127.577 37.5026C125.924 37.5026 124.613 37.0258 123.644 36.0724C122.676 35.1189 122.155 33.7632 122.08 32.0052C122.065 31.8562 122.058 31.67 122.058 31.4465C122.058 31.2081 122.065 31.0219 122.08 30.8878C122.14 29.7705 122.393 28.8021 122.84 27.9827C123.302 27.1633 123.935 26.5376 124.739 26.1055C125.544 25.6586 126.49 25.4351 127.577 25.4351C128.784 25.4351 129.797 25.6884 130.617 26.1949C131.436 26.6866 132.054 27.3793 132.471 28.2732C132.889 29.1522 133.097 30.1727 133.097 31.3348V31.8041C133.097 31.953 133.045 32.0797 132.941 32.184C132.836 32.2883 132.702 32.3404 132.539 32.3404H125.119C125.119 32.3404 125.119 32.3627 125.119 32.4074C125.119 32.4521 125.119 32.4894 125.119 32.5192C125.134 33.0406 125.231 33.5248 125.41 33.9717C125.603 34.4038 125.879 34.7539 126.237 35.0221C126.609 35.2902 127.049 35.4243 127.555 35.4243C127.972 35.4243 128.322 35.3647 128.605 35.2455C128.888 35.1114 129.119 34.9625 129.298 34.7986C129.477 34.6347 129.604 34.5006 129.678 34.3963C129.812 34.2176 129.916 34.1133 129.991 34.0835C130.08 34.0388 130.207 34.0164 130.371 34.0164H132.293C132.442 34.0164 132.561 34.0611 132.65 34.1505C132.755 34.2399 132.799 34.3516 132.784 34.4857C132.769 34.7241 132.643 35.0146 132.404 35.3573C132.181 35.6999 131.853 36.0351 131.421 36.3629C130.989 36.6906 130.445 36.9663 129.79 37.1897C129.149 37.3983 128.412 37.5026 127.577 37.5026ZM125.119 30.4632H130.058V30.3962C130.058 29.8152 129.961 29.3086 129.767 28.8766C129.574 28.4445 129.291 28.1019 128.918 27.8486C128.546 27.5953 128.099 27.4687 127.577 27.4687C127.056 27.4687 126.609 27.5953 126.237 27.8486C125.864 28.1019 125.581 28.4445 125.387 28.8766C125.209 29.3086 125.119 29.8152 125.119 30.3962V30.4632Z" fill="white"/>
</svg>
