<svg width="150" height="50" viewBox="0 0 150 50" fill="none" xmlns="http://www.w3.org/2000/svg">
<rect x="1.14949" y="0.436047" width="147.973" height="49.1279" rx="7.70349" fill="black"/>
<rect x="1.14949" y="0.436047" width="147.973" height="49.1279" rx="7.70349" stroke="white" stroke-width="0.872093"/>
<path d="M30.4052 29.4339C33.753 27.5628 36.313 26.1372 36.5318 26.0259C37.2319 25.6472 37.954 24.6448 36.5318 23.8652C36.0723 23.6202 33.5998 22.2391 30.4052 20.4572L26.0073 24.9567L30.4052 29.4339Z" fill="#FFDD33"/>
<path d="M26.0073 24.9567L11.96 39.3685C12.2882 39.4131 12.6602 39.324 13.0978 39.079C14.0168 38.5666 23.7755 33.1316 30.4053 29.434L26.0073 24.9567Z" fill="#FF6666"/>
<path d="M26.0073 24.9567L30.4052 20.4572C30.4052 20.4572 14.0824 11.3913 13.0978 10.8567C12.7258 10.634 12.3101 10.5672 11.9381 10.634L26.0073 24.9567Z" fill="#7BFF7B"/>
<path d="M26.0073 24.9567L11.9381 10.634C11.3692 10.7676 10.8879 11.2799 10.8879 12.3269C10.8879 13.9975 10.8879 36.2723 10.8879 37.6756C10.8879 38.6334 11.2598 39.3239 11.96 39.3908L26.0073 24.9567Z" fill="#6ED8FF"/>
<path d="M48.3073 17.3729C47.6606 17.3729 47.1088 17.2604 46.6519 17.0355C46.2021 16.8106 45.8506 16.4872 45.5975 16.0654C45.3515 15.6367 45.218 15.127 45.1969 14.5366C45.1898 14.2343 45.1863 13.911 45.1863 13.5665C45.1863 13.2151 45.1898 12.8847 45.1969 12.5754C45.218 11.992 45.3515 11.4929 45.5975 11.0782C45.8506 10.6634 46.2056 10.3436 46.6625 10.1187C47.1264 9.89372 47.6747 9.78125 48.3073 9.78125C48.8205 9.78125 49.2704 9.85155 49.657 9.99213C50.0436 10.1257 50.3634 10.3014 50.6165 10.5193C50.8765 10.7302 51.0699 10.9587 51.1964 11.2047C51.3299 11.4507 51.4002 11.6792 51.4073 11.89C51.4143 11.9533 51.3967 12.006 51.3545 12.0482C51.3124 12.0904 51.2561 12.1115 51.1858 12.1115H50.0998C50.0295 12.1115 49.9768 12.0974 49.9417 12.0693C49.9065 12.0412 49.8749 11.999 49.8468 11.9428C49.7905 11.7951 49.7027 11.651 49.5832 11.5105C49.4637 11.3628 49.302 11.2398 49.0981 11.1414C48.8943 11.043 48.6307 10.9938 48.3073 10.9938C47.8293 10.9938 47.4463 11.1203 47.158 11.3734C46.8769 11.6264 46.7257 12.0447 46.7047 12.6281C46.6836 13.2397 46.6836 13.8582 46.7047 14.4839C46.7257 15.0813 46.8804 15.5101 47.1686 15.7702C47.4638 16.0303 47.8504 16.1603 48.3284 16.1603C48.6447 16.1603 48.9259 16.1041 49.1719 15.9916C49.425 15.8792 49.6218 15.7034 49.7624 15.4644C49.91 15.2254 49.9838 14.9197 49.9838 14.5471V14.2203H48.6975C48.6272 14.2203 48.5674 14.1957 48.5182 14.1464C48.469 14.0972 48.4444 14.034 48.4444 13.9567V13.3978C48.4444 13.3205 48.469 13.2572 48.5182 13.208C48.5674 13.1588 48.6272 13.1342 48.6975 13.1342H51.2175C51.2948 13.1342 51.3545 13.1588 51.3967 13.208C51.4459 13.2572 51.4705 13.3205 51.4705 13.3978V14.5049C51.4705 15.0954 51.3405 15.605 51.0804 16.0338C50.8273 16.4626 50.4618 16.793 49.9838 17.0249C49.5129 17.2569 48.954 17.3729 48.3073 17.3729ZM55.0575 17.3729C54.2773 17.3729 53.6587 17.148 53.2018 16.6981C52.7449 16.2482 52.4989 15.6085 52.4637 14.7791C52.4567 14.7088 52.4532 14.6209 52.4532 14.5155C52.4532 14.403 52.4567 14.3152 52.4637 14.2519C52.4918 13.7247 52.6113 13.2678 52.8222 12.8812C53.0401 12.4946 53.3389 12.1993 53.7184 11.9955C54.098 11.7846 54.5444 11.6792 55.0575 11.6792C55.6269 11.6792 56.1049 11.7987 56.4915 12.0377C56.8781 12.2696 57.1698 12.5965 57.3666 13.0182C57.5635 13.433 57.6619 13.9145 57.6619 14.4628V14.6842C57.6619 14.7545 57.6373 14.8142 57.5881 14.8634C57.5389 14.9126 57.4756 14.9372 57.3983 14.9372H53.8977C53.8977 14.9372 53.8977 14.9478 53.8977 14.9689C53.8977 14.99 53.8977 15.0075 53.8977 15.0216C53.9047 15.2676 53.9504 15.4961 54.0348 15.707C54.1261 15.9108 54.2562 16.076 54.4249 16.2025C54.6006 16.329 54.808 16.3923 55.047 16.3923C55.2438 16.3923 55.409 16.3642 55.5425 16.308C55.6761 16.2447 55.7851 16.1744 55.8694 16.0971C55.9538 16.0198 56.0135 15.9565 56.0487 15.9073C56.1119 15.8229 56.1611 15.7737 56.1963 15.7597C56.2384 15.7386 56.2982 15.728 56.3755 15.728H57.2823C57.3526 15.728 57.4088 15.7491 57.451 15.7913C57.5002 15.8335 57.5213 15.8862 57.5143 15.9495C57.5072 16.0619 57.4475 16.199 57.335 16.3607C57.2296 16.5224 57.0749 16.6805 56.8711 16.8352C56.6672 16.9898 56.4107 17.1198 56.1014 17.2253C55.7991 17.3237 55.4512 17.3729 55.0575 17.3729ZM53.8977 14.0516H56.2279V14.0199C56.2279 13.7458 56.1822 13.5068 56.0908 13.3029C55.9995 13.0991 55.8659 12.9374 55.6902 12.8179C55.5144 12.6984 55.3036 12.6387 55.0575 12.6387C54.8115 12.6387 54.6006 12.6984 54.4249 12.8179C54.2492 12.9374 54.1156 13.0991 54.0242 13.3029C53.9399 13.5068 53.8977 13.7458 53.8977 14.0199V14.0516ZM61.2383 17.2675C60.8166 17.2675 60.4616 17.1936 60.1734 17.046C59.8852 16.8984 59.6708 16.6805 59.5302 16.3923C59.3896 16.0971 59.3193 15.7316 59.3193 15.2957V12.9023H58.4864C58.4161 12.9023 58.3563 12.8777 58.3071 12.8285C58.2579 12.7792 58.2333 12.7195 58.2333 12.6492V12.0377C58.2333 11.9674 58.2579 11.9076 58.3071 11.8584C58.3563 11.8092 58.4161 11.7846 58.4864 11.7846H59.3193V10.0343C59.3193 9.96402 59.3404 9.90427 59.3826 9.85506C59.4318 9.80586 59.4951 9.78125 59.5724 9.78125H60.4265C60.4967 9.78125 60.5565 9.80586 60.6057 9.85506C60.6549 9.90427 60.6795 9.96402 60.6795 10.0343V11.7846H61.9975C62.0678 11.7846 62.1275 11.8092 62.1767 11.8584C62.226 11.9076 62.2506 11.9674 62.2506 12.0377V12.6492C62.2506 12.7195 62.226 12.7792 62.1767 12.8285C62.1275 12.8777 62.0678 12.9023 61.9975 12.9023H60.6795V15.1903C60.6795 15.4785 60.7287 15.7034 60.8271 15.8651C60.9326 16.0268 61.1118 16.1076 61.3649 16.1076H62.0924C62.1627 16.1076 62.2224 16.1322 62.2716 16.1814C62.3208 16.2306 62.3455 16.2904 62.3455 16.3607V17.0144C62.3455 17.0847 62.3208 17.1444 62.2716 17.1936C62.2224 17.2429 62.1627 17.2675 62.0924 17.2675H61.2383ZM65.9433 17.2675C65.873 17.2675 65.8133 17.2429 65.7641 17.1936C65.7149 17.1444 65.6903 17.0847 65.6903 17.0144V12.0377C65.6903 11.9674 65.7149 11.9076 65.7641 11.8584C65.8133 11.8092 65.873 11.7846 65.9433 11.7846H66.8185C66.8958 11.7846 66.9555 11.8092 66.9977 11.8584C67.0469 11.9076 67.0715 11.9674 67.0715 12.0377V17.0144C67.0715 17.0847 67.0469 17.1444 66.9977 17.1936C66.9555 17.2429 66.8958 17.2675 66.8185 17.2675H65.9433ZM65.9011 10.8778C65.8238 10.8778 65.7606 10.8567 65.7114 10.8146C65.6692 10.7654 65.6481 10.7021 65.6481 10.6248V9.86561C65.6481 9.79531 65.6692 9.73556 65.7114 9.68636C65.7606 9.63715 65.8238 9.61255 65.9011 9.61255H66.8606C66.938 9.61255 67.0012 9.63715 67.0504 9.68636C67.0996 9.73556 67.1242 9.79531 67.1242 9.86561V10.6248C67.1242 10.7021 67.0996 10.7654 67.0504 10.8146C67.0012 10.8567 66.938 10.8778 66.8606 10.8778H65.9011ZM70.9482 17.2675C70.5265 17.2675 70.1715 17.1936 69.8833 17.046C69.5951 16.8984 69.3807 16.6805 69.2401 16.3923C69.0995 16.0971 69.0292 15.7316 69.0292 15.2957V12.9023H68.1963C68.126 12.9023 68.0662 12.8777 68.017 12.8285C67.9678 12.7792 67.9432 12.7195 67.9432 12.6492V12.0377C67.9432 11.9674 67.9678 11.9076 68.017 11.8584C68.0662 11.8092 68.126 11.7846 68.1963 11.7846H69.0292V10.0343C69.0292 9.96402 69.0503 9.90427 69.0925 9.85506C69.1417 9.80586 69.205 9.78125 69.2823 9.78125H70.1364C70.2067 9.78125 70.2664 9.80586 70.3156 9.85506C70.3648 9.90427 70.3894 9.96402 70.3894 10.0343V11.7846H71.7074C71.7777 11.7846 71.8374 11.8092 71.8867 11.8584C71.9359 11.9076 71.9605 11.9674 71.9605 12.0377V12.6492C71.9605 12.7195 71.9359 12.7792 71.8867 12.8285C71.8374 12.8777 71.7777 12.9023 71.7074 12.9023H70.3894V15.1903C70.3894 15.4785 70.4386 15.7034 70.537 15.8651C70.6425 16.0268 70.8217 16.1076 71.0748 16.1076H71.8023C71.8726 16.1076 71.9323 16.1322 71.9815 16.1814C72.0308 16.2306 72.0554 16.2904 72.0554 16.3607V17.0144C72.0554 17.0847 72.0308 17.1444 71.9815 17.1936C71.9323 17.2429 71.8726 17.2675 71.8023 17.2675H70.9482ZM77.8253 17.3729C77.2629 17.3729 76.7885 17.2745 76.4018 17.0777C76.0223 16.8808 75.7306 16.6032 75.5267 16.2447C75.3299 15.8862 75.2174 15.468 75.1893 14.99C75.1823 14.8634 75.1788 14.7088 75.1788 14.526C75.1788 14.3433 75.1823 14.1886 75.1893 14.0621C75.2174 13.5771 75.3334 13.1588 75.5372 12.8074C75.7481 12.4489 76.0434 12.1712 76.4229 11.9744C76.8095 11.7776 77.277 11.6792 77.8253 11.6792C78.3736 11.6792 78.8375 11.7776 79.2171 11.9744C79.6037 12.1712 79.8989 12.4489 80.1028 12.8074C80.3137 13.1588 80.4332 13.5771 80.4613 14.0621C80.4683 14.1886 80.4718 14.3433 80.4718 14.526C80.4718 14.7088 80.4683 14.8634 80.4613 14.99C80.4332 15.468 80.3172 15.8862 80.1133 16.2447C79.9165 16.6032 79.6248 16.8808 79.2382 17.0777C78.8586 17.2745 78.3876 17.3729 77.8253 17.3729ZM77.8253 16.329C78.1978 16.329 78.486 16.2131 78.6899 15.9811C78.8937 15.7421 79.0062 15.3941 79.0273 14.9372C79.0343 14.8318 79.0378 14.6947 79.0378 14.526C79.0378 14.3573 79.0343 14.2203 79.0273 14.1148C79.0062 13.6649 78.8937 13.3205 78.6899 13.0815C78.486 12.8425 78.1978 12.723 77.8253 12.723C77.4527 12.723 77.1645 12.8425 76.9607 13.0815C76.7568 13.3205 76.6444 13.6649 76.6233 14.1148C76.6162 14.2203 76.6127 14.3573 76.6127 14.526C76.6127 14.6947 76.6162 14.8318 76.6233 14.9372C76.6444 15.3941 76.7568 15.7421 76.9607 15.9811C77.1645 16.2131 77.4527 16.329 77.8253 16.329ZM81.8931 17.2675C81.8228 17.2675 81.7631 17.2429 81.7139 17.1936C81.6647 17.1444 81.64 17.0847 81.64 17.0144V12.0377C81.64 11.9674 81.6647 11.9076 81.7139 11.8584C81.7631 11.8092 81.8228 11.7846 81.8931 11.7846H82.7577C82.828 11.7846 82.8877 11.8092 82.937 11.8584C82.9862 11.9076 83.0108 11.9674 83.0108 12.0377V12.47C83.1935 12.245 83.4255 12.0587 83.7067 11.9111C83.9949 11.7565 84.3498 11.6792 84.7716 11.6792C85.2004 11.6792 85.5729 11.7776 85.8893 11.9744C86.2056 12.1642 86.4481 12.4348 86.6168 12.7863C86.7925 13.1377 86.8804 13.5595 86.8804 14.0516V17.0144C86.8804 17.0847 86.8558 17.1444 86.8066 17.1936C86.7574 17.2429 86.6976 17.2675 86.6273 17.2675H85.6995C85.6292 17.2675 85.5694 17.2429 85.5202 17.1936C85.471 17.1444 85.4464 17.0847 85.4464 17.0144V14.1148C85.4464 13.7071 85.3445 13.3873 85.1406 13.1553C84.9438 12.9234 84.6556 12.8074 84.276 12.8074C83.9105 12.8074 83.6188 12.9234 83.4009 13.1553C83.183 13.3873 83.074 13.7071 83.074 14.1148V17.0144C83.074 17.0847 83.0494 17.1444 83.0002 17.1936C82.951 17.2429 82.8913 17.2675 82.821 17.2675H81.8931Z" fill="white"/>
<path d="M46.8964 37.2791C46.7474 37.2791 46.6208 37.227 46.5165 37.1227C46.4122 37.0184 46.36 36.8918 46.36 36.7428V22.1948C46.36 22.0309 46.4122 21.8968 46.5165 21.7925C46.6208 21.6883 46.7474 21.6361 46.8964 21.6361H52.8854C54.0475 21.6361 55.0605 21.8223 55.9246 22.1948C56.7887 22.5523 57.4591 23.1036 57.9359 23.8485C58.4126 24.5785 58.651 25.4947 58.651 26.5972C58.651 27.7145 58.4126 28.6382 57.9359 29.3682C57.4591 30.0833 56.7887 30.6197 55.9246 30.9772C55.0605 31.3348 54.0475 31.5135 52.8854 31.5135H49.5557V36.7428C49.5557 36.8918 49.5035 37.0184 49.3992 37.1227C49.3099 37.227 49.1832 37.2791 49.0193 37.2791H46.8964ZM49.511 29.033H52.7737C53.6378 29.033 54.3007 28.8319 54.7626 28.4296C55.2244 28.0125 55.4553 27.4017 55.4553 26.5972C55.4553 25.8523 55.2393 25.2563 54.8073 24.8094C54.3752 24.3476 53.6973 24.1166 52.7737 24.1166H49.511V29.033ZM59.817 37.2791C59.6681 37.2791 59.5414 37.227 59.4371 37.1227C59.3328 37.0184 59.2807 36.8918 59.2807 36.7428V21.949C59.2807 21.8 59.3328 21.6734 59.4371 21.5691C59.5414 21.4648 59.6681 21.4126 59.817 21.4126H61.6718C61.8208 21.4126 61.9475 21.4648 62.0517 21.5691C62.156 21.6734 62.2082 21.8 62.2082 21.949V36.7428C62.2082 36.8918 62.156 37.0184 62.0517 37.1227C61.9475 37.227 61.8208 37.2791 61.6718 37.2791H59.817ZM66.9826 37.5026C66.2079 37.5026 65.5077 37.3536 64.882 37.0556C64.2563 36.7428 63.7572 36.3331 63.3847 35.8265C63.0272 35.3051 62.8484 34.7241 62.8484 34.0835C62.8484 33.0406 63.2655 32.2138 64.0998 31.6029C64.949 30.9772 66.0664 30.5601 67.4519 30.3515L70.5135 29.9046V29.4353C70.5135 28.8095 70.357 28.3254 70.0442 27.9827C69.7313 27.64 69.195 27.4687 68.4352 27.4687C67.8988 27.4687 67.4594 27.5805 67.1167 27.8039C66.7889 28.0125 66.5431 28.2956 66.3792 28.6531C66.2601 28.8468 66.0887 28.9436 65.8653 28.9436H64.0998C63.936 28.9436 63.8093 28.8989 63.7199 28.8095C63.6454 28.7202 63.6082 28.601 63.6082 28.452C63.6231 28.2136 63.7199 27.9231 63.8987 27.5805C64.0775 27.2378 64.3605 26.91 64.7479 26.5972C65.1352 26.2694 65.6343 25.9938 66.2452 25.7703C66.856 25.5469 67.5934 25.4351 68.4575 25.4351C69.3961 25.4351 70.1857 25.5543 70.8263 25.7927C71.4818 26.0162 72.0033 26.3216 72.3906 26.7089C72.778 27.0963 73.061 27.5507 73.2398 28.0721C73.4186 28.5935 73.508 29.1448 73.508 29.7258V36.7428C73.508 36.8918 73.4558 37.0184 73.3516 37.1227C73.2473 37.227 73.1206 37.2791 72.9716 37.2791H71.1615C70.9977 37.2791 70.8636 37.227 70.7593 37.1227C70.6699 37.0184 70.6252 36.8918 70.6252 36.7428V35.8712C70.4315 36.1543 70.1708 36.4225 69.843 36.6757C69.5153 36.9141 69.113 37.1152 68.6363 37.2791C68.1745 37.4281 67.6232 37.5026 66.9826 37.5026ZM67.7424 35.3796C68.2638 35.3796 68.7331 35.2679 69.1503 35.0444C69.5823 34.8209 69.9175 34.4783 70.1559 34.0164C70.4092 33.5397 70.5358 32.9438 70.5358 32.2287V31.7594L68.3011 32.1169C67.4221 32.251 66.7666 32.467 66.3345 32.765C65.9025 33.063 65.6865 33.428 65.6865 33.86C65.6865 34.1878 65.7833 34.4708 65.977 34.7092C66.1856 34.9327 66.4463 35.104 66.7591 35.2232C67.072 35.3275 67.3998 35.3796 67.7424 35.3796ZM76.6057 41.5251C76.4865 41.5251 76.3822 41.4804 76.2928 41.391C76.2034 41.3016 76.1587 41.1973 76.1587 41.0781C76.1587 41.0185 76.1587 40.9589 76.1587 40.8994C76.1736 40.8547 76.2034 40.7951 76.2481 40.7206L77.9912 36.5864L73.7005 26.4631C73.641 26.3141 73.6112 26.2098 73.6112 26.1502C73.6261 26.0162 73.6782 25.9044 73.7676 25.815C73.857 25.7107 73.9687 25.6586 74.1028 25.6586H75.9129C76.0917 25.6586 76.2258 25.7033 76.3152 25.7927C76.4046 25.8821 76.4716 25.9789 76.5163 26.0832L79.4885 33.3907L82.55 26.0832C82.5947 25.964 82.6618 25.8672 82.7511 25.7927C82.8405 25.7033 82.9746 25.6586 83.1534 25.6586H84.9412C85.0603 25.6586 85.1646 25.7033 85.254 25.7927C85.3583 25.8821 85.4105 25.9864 85.4105 26.1055C85.4105 26.1949 85.3807 26.3141 85.3211 26.4631L78.9968 41.1005C78.9372 41.2197 78.8627 41.3165 78.7734 41.391C78.684 41.4804 78.5499 41.5251 78.3711 41.5251H76.6057ZM94.4246 37.5026C93.039 37.5026 91.877 37.3015 90.9384 36.8992C90.0147 36.4821 89.3071 35.9457 88.8154 35.2902C88.3387 34.6198 88.0854 33.9196 88.0556 33.1896C88.0556 33.0555 88.1003 32.9438 88.1897 32.8544C88.2791 32.765 88.3908 32.7203 88.5249 32.7203H90.5138C90.7075 32.7203 90.849 32.765 90.9384 32.8544C91.0427 32.9289 91.1321 33.0257 91.2066 33.1449C91.296 33.428 91.4673 33.711 91.7206 33.9941C91.9738 34.2622 92.3165 34.4857 92.7485 34.6645C93.1955 34.8433 93.7541 34.9327 94.4246 34.9327C95.4972 34.9327 96.2943 34.7539 96.8157 34.3963C97.352 34.0388 97.6202 33.5546 97.6202 32.9438C97.6202 32.5117 97.4787 32.1691 97.1956 31.9158C96.9125 31.6476 96.473 31.4093 95.8771 31.2007C95.2961 30.9772 94.5214 30.7463 93.553 30.5079C92.4357 30.2398 91.4971 29.9195 90.7373 29.547C89.9924 29.1597 89.4262 28.6755 89.0389 28.0944C88.6664 27.5134 88.4802 26.776 88.4802 25.8821C88.4802 25.018 88.7111 24.2507 89.173 23.5803C89.6497 22.9099 90.3201 22.381 91.1842 21.9937C92.0632 21.6063 93.1061 21.4126 94.3128 21.4126C95.2812 21.4126 96.1378 21.5467 96.8827 21.8149C97.6277 22.0682 98.2459 22.4108 98.7376 22.8429C99.2292 23.26 99.6016 23.7144 99.8549 24.206C100.123 24.6828 100.265 25.1521 100.28 25.6139C100.28 25.7331 100.235 25.8448 100.145 25.9491C100.071 26.0385 99.9592 26.0832 99.8102 26.0832H97.7319C97.6128 26.0832 97.4936 26.0534 97.3744 25.9938C97.2552 25.9342 97.1584 25.8225 97.0839 25.6586C96.9945 25.1968 96.704 24.802 96.2123 24.4742C95.7207 24.1464 95.0875 23.9826 94.3128 23.9826C93.5083 23.9826 92.8603 24.1315 92.3686 24.4295C91.877 24.7275 91.6312 25.1893 91.6312 25.815C91.6312 26.2322 91.7504 26.5823 91.9887 26.8653C92.242 27.1335 92.6368 27.3719 93.1731 27.5805C93.7243 27.789 94.4469 28.0125 95.3408 28.2509C96.6071 28.5339 97.6425 28.8617 98.447 29.2341C99.2515 29.6066 99.84 30.0833 100.212 30.6644C100.585 31.2305 100.771 31.953 100.771 32.832C100.771 33.8153 100.503 34.657 99.9667 35.3573C99.4452 36.0426 98.7078 36.5715 97.7543 36.9439C96.8008 37.3164 95.6909 37.5026 94.4246 37.5026ZM106.751 37.2791C105.857 37.2791 105.105 37.1227 104.494 36.8098C103.883 36.497 103.429 36.0351 103.131 35.4243C102.833 34.7986 102.684 34.0239 102.684 33.1002V28.0274H100.919C100.77 28.0274 100.643 27.9753 100.539 27.871C100.434 27.7667 100.382 27.64 100.382 27.4911V26.1949C100.382 26.0459 100.434 25.9193 100.539 25.815C100.643 25.7107 100.77 25.6586 100.919 25.6586H102.684V21.949C102.684 21.8 102.729 21.6734 102.818 21.5691C102.922 21.4648 103.057 21.4126 103.22 21.4126H105.031C105.18 21.4126 105.306 21.4648 105.41 21.5691C105.515 21.6734 105.567 21.8 105.567 21.949V25.6586H108.36C108.509 25.6586 108.636 25.7107 108.74 25.815C108.844 25.9193 108.897 26.0459 108.897 26.1949V27.4911C108.897 27.64 108.844 27.7667 108.74 27.871C108.636 27.9753 108.509 28.0274 108.36 28.0274H105.567V32.8767C105.567 33.4875 105.671 33.9643 105.88 34.3069C106.103 34.6496 106.483 34.8209 107.019 34.8209H108.561C108.71 34.8209 108.837 34.8731 108.941 34.9774C109.046 35.0816 109.098 35.2083 109.098 35.3573V36.7428C109.098 36.8918 109.046 37.0184 108.941 37.1227C108.837 37.227 108.71 37.2791 108.561 37.2791H106.751ZM114.656 37.5026C113.464 37.5026 112.458 37.294 111.639 36.8769C110.834 36.4597 110.216 35.8712 109.784 35.1114C109.367 34.3516 109.129 33.4652 109.069 32.4521C109.054 32.184 109.047 31.8562 109.047 31.4689C109.047 31.0815 109.054 30.7537 109.069 30.4856C109.129 29.4576 109.374 28.5712 109.806 27.8263C110.253 27.0665 110.879 26.478 111.684 26.0608C112.503 25.6437 113.494 25.4351 114.656 25.4351C115.818 25.4351 116.801 25.6437 117.606 26.0608C118.425 26.478 119.051 27.0665 119.483 27.8263C119.93 28.5712 120.183 29.4576 120.242 30.4856C120.257 30.7537 120.265 31.0815 120.265 31.4689C120.265 31.8562 120.257 32.184 120.242 32.4521C120.183 33.4652 119.937 34.3516 119.505 35.1114C119.088 35.8712 118.47 36.4597 117.65 36.8769C116.846 37.294 115.848 37.5026 114.656 37.5026ZM114.656 35.2902C115.445 35.2902 116.056 35.0444 116.488 34.5528C116.92 34.0462 117.159 33.3088 117.203 32.3404C117.218 32.1169 117.226 31.8264 117.226 31.4689C117.226 31.1113 117.218 30.8208 117.203 30.5973C117.159 29.6438 116.92 28.9138 116.488 28.4073C116.056 27.9008 115.445 27.6475 114.656 27.6475C113.866 27.6475 113.255 27.9008 112.823 28.4073C112.391 28.9138 112.153 29.6438 112.108 30.5973C112.093 30.8208 112.086 31.1113 112.086 31.4689C112.086 31.8264 112.093 32.1169 112.108 32.3404C112.153 33.3088 112.391 34.0462 112.823 34.5528C113.255 35.0444 113.866 35.2902 114.656 35.2902ZM121.713 37.2791C121.564 37.2791 121.437 37.227 121.333 37.1227C121.229 37.0184 121.177 36.8918 121.177 36.7428V26.2173C121.177 26.0534 121.229 25.9193 121.333 25.815C121.437 25.7107 121.564 25.6586 121.713 25.6586H123.523C123.672 25.6586 123.799 25.7107 123.903 25.815C124.022 25.9193 124.082 26.0534 124.082 26.2173V27.1335C124.424 26.6568 124.864 26.2918 125.4 26.0385C125.951 25.7852 126.585 25.6586 127.3 25.6586H128.216C128.38 25.6586 128.506 25.7107 128.596 25.815C128.7 25.9193 128.752 26.0459 128.752 26.1949V27.8039C128.752 27.9529 128.7 28.0795 128.596 28.1838C128.506 28.2881 128.38 28.3403 128.216 28.3403H126.473C125.758 28.3403 125.199 28.5414 124.797 28.9436C124.409 29.3459 124.216 29.8971 124.216 30.5973V36.7428C124.216 36.8918 124.164 37.0184 124.059 37.1227C123.955 37.227 123.821 37.2791 123.657 37.2791H121.713ZM133.784 37.5026C132.13 37.5026 130.819 37.0258 129.851 36.0724C128.882 35.1189 128.361 33.7632 128.286 32.0052C128.272 31.8562 128.264 31.67 128.264 31.4465C128.264 31.2081 128.272 31.0219 128.286 30.8878C128.346 29.7705 128.599 28.8021 129.046 27.9827C129.508 27.1633 130.141 26.5376 130.946 26.1055C131.75 25.6586 132.696 25.4351 133.784 25.4351C134.991 25.4351 136.004 25.6884 136.823 26.1949C137.642 26.6866 138.261 27.3793 138.678 28.2732C139.095 29.1522 139.304 30.1727 139.304 31.3348V31.8041C139.304 31.953 139.251 32.0797 139.147 32.184C139.043 32.2883 138.909 32.3404 138.745 32.3404H131.326C131.326 32.3404 131.326 32.3627 131.326 32.4074C131.326 32.4521 131.326 32.4894 131.326 32.5192C131.341 33.0406 131.437 33.5248 131.616 33.9717C131.81 34.4038 132.085 34.7539 132.443 35.0221C132.815 35.2902 133.255 35.4243 133.761 35.4243C134.179 35.4243 134.529 35.3647 134.812 35.2455C135.095 35.1114 135.326 34.9625 135.505 34.7986C135.683 34.6347 135.81 34.5006 135.884 34.3963C136.019 34.2176 136.123 34.1133 136.197 34.0835C136.287 34.0388 136.413 34.0164 136.577 34.0164H138.499C138.648 34.0164 138.767 34.0611 138.857 34.1505C138.961 34.2399 139.006 34.3516 138.991 34.4857C138.976 34.7241 138.849 35.0146 138.611 35.3573C138.387 35.6999 138.06 36.0351 137.628 36.3629C137.195 36.6906 136.652 36.9663 135.996 37.1897C135.356 37.3983 134.618 37.5026 133.784 37.5026ZM131.326 30.4632H136.264V30.3962C136.264 29.8152 136.168 29.3086 135.974 28.8766C135.78 28.4445 135.497 28.1019 135.125 27.8486C134.752 27.5953 134.305 27.4687 133.784 27.4687C133.262 27.4687 132.815 27.5953 132.443 27.8486C132.071 28.1019 131.787 28.4445 131.594 28.8766C131.415 29.3086 131.326 29.8152 131.326 30.3962V30.4632Z" fill="white"/>
</svg>
