<svg width="25" height="25" viewBox="0 0 25 25" fill="none" xmlns="http://www.w3.org/2000/svg">
<path d="M12.1152 3.21191C6.7293 3.21191 2.36523 7.57598 2.36523 12.9619C2.36523 18.3479 6.7293 22.7119 12.1152 22.7119C17.5012 22.7119 21.8652 18.3479 21.8652 12.9619C21.8652 7.57598 17.5012 3.21191 12.1152 3.21191ZM17.1074 10.2666L10.8402 16.5619H10.8355C10.7559 16.6416 10.5402 16.8197 10.2918 16.8197C10.1137 16.8197 9.91211 16.7213 9.74336 16.5525L7.11836 13.9275C7.04336 13.8525 7.04336 13.7354 7.11836 13.6604L7.95273 12.826C7.99023 12.7885 8.03711 12.7697 8.08398 12.7697C8.13086 12.7697 8.17773 12.7885 8.21523 12.826L10.2965 14.9072L16.0152 9.14629C16.0527 9.10879 16.0996 9.09004 16.1465 9.09004C16.198 9.09004 16.2449 9.10879 16.2777 9.14629L17.098 9.99473C17.1824 10.0744 17.1824 10.1916 17.1074 10.2666Z" fill="#00C2A0"/>
</svg>
