<svg width="25" height="24" viewBox="0 0 25 24" fill="none" xmlns="http://www.w3.org/2000/svg">
<path d="M12.2002 2.25195C6.81426 2.25195 2.4502 6.61602 2.4502 12.002C2.4502 17.3879 6.81426 21.752 12.2002 21.752C17.5861 21.752 21.9502 17.3879 21.9502 12.002C21.9502 6.61602 17.5861 2.25195 12.2002 2.25195ZM17.1924 9.30664L10.9252 15.602H10.9205C10.8408 15.6816 10.6252 15.8598 10.3768 15.8598C10.1986 15.8598 9.99707 15.7613 9.82832 15.5926L7.20332 12.9676C7.12832 12.8926 7.12832 12.7754 7.20332 12.7004L8.0377 11.866C8.0752 11.8285 8.12207 11.8098 8.16895 11.8098C8.21582 11.8098 8.2627 11.8285 8.3002 11.866L10.3814 13.9473L16.1002 8.18633C16.1377 8.14883 16.1846 8.13008 16.2314 8.13008C16.283 8.13008 16.3299 8.14883 16.3627 8.18633L17.183 9.03477C17.2674 9.11445 17.2674 9.23164 17.1924 9.30664Z" fill="#00C2A0"/>
</svg>
